<?xml version="1.0" standalone="no"?>
<svg xmlns="http://www.w3.org/2000/svg" viewBox="0 0 302.437 29" width="302.437" height="25"><g fill="#fff" color="#fff" transform="translate(0, 0) scale(0.6041667)"><svg width="28.0" height="48.0" x="0.0" y="0.0" viewBox="0 0 28 48"><path fill="currentColor" fill-rule="nonzero" d="M13.93.61L.36 30.2l13.57 17.19L27.51 30.2 13.93.61zm0 3.92L25.6 30.02H2.26L13.93 4.53z"></path></svg></g><line x1="28.917" y1="1" x2="28.917" y2="28" stroke="#fff" stroke-linecap="round"></line><path fill="#fff" fill-rule="nonzero" d="M5.09 23.14Q3.34 23.14 2.27 22.24Q1.20 21.34 1.20 19.87L1.20 19.87Q1.20 18.96 1.63 18.19Q2.06 17.42 2.81 16.98Q3.55 16.54 4.44 16.54L4.44 16.54Q5.35 16.54 5.92 16.99Q6.48 17.45 6.48 18.19L6.48 18.19Q6.48 18.77 6.22 19.10L6.22 19.10Q6 18.82 5.63 18.65Q5.26 18.48 4.85 18.48L4.85 18.48Q4.13 18.48 3.67 18.96Q3.22 19.44 3.22 20.21L3.22 20.21Q3.22 20.98 3.66 21.46Q4.10 21.94 4.78 21.94L4.78 21.94Q5.62 21.94 6.22 21.19Q6.82 20.45 7.13 18.98L7.13 18.98L8.33 13.68L8.23 13.68Q7.58 14.59 6.66 15.07Q5.74 15.55 4.63 15.55L4.63 15.55Q3.24 15.55 2.18 14.81Q1.13 14.06 0.56 12.68Q0 11.30 0 9.48L0 9.48Q0 6.84 1.15 4.67Q2.30 2.50 4.32 1.25Q6.34 0 8.76 0L8.76 0Q10.80 0 11.99 0.89Q13.18 1.78 13.18 3.31L13.18 3.31Q13.18 4.34 12.67 4.97Q12.17 5.59 11.35 5.59L11.35 5.59Q10.90 5.59 10.50 5.40Q10.10 5.21 9.84 4.85L9.84 4.85Q10.27 4.56 10.57 3.92Q10.87 3.29 10.87 2.64L10.87 2.64Q10.87 1.92 10.45 1.52Q10.03 1.13 9.26 1.13L9.26 1.13Q7.87 1.13 6.58 2.36Q5.28 3.60 4.49 5.59Q3.70 7.58 3.70 9.77L3.70 9.77Q3.70 11.57 4.27 12.52Q4.85 13.46 5.93 13.46L5.93 13.46Q7.22 13.46 8.22 12.10Q9.22 10.73 9.82 8.11L9.82 8.11L12.65 8.14L10.90 16.20Q10.13 19.78 8.72 21.46Q7.32 23.14 5.09 23.14L5.09 23.14ZM15.79 18.31Q14.64 18.31 13.93 17.59Q13.22 16.87 13.22 15.43L13.22 15.43Q13.22 14.83 13.42 13.87L13.42 13.87L15.05 6.17L18.50 6.17L16.78 14.33Q16.70 14.69 16.70 15L16.70 15Q16.70 15.98 17.42 15.98L17.42 15.98Q18.10 15.98 18.58 15.42Q19.06 14.86 19.34 13.87L19.34 13.87L20.98 6.17L24.43 6.17L22.70 14.33Q22.61 14.69 22.61 15.10L22.61 15.10Q22.61 15.58 22.84 15.78Q23.06 15.98 23.59 15.98L23.59 15.98Q24.26 15.98 24.76 15.41Q25.25 14.83 25.54 13.87L25.54 13.87L26.54 13.87Q25.66 16.46 24.35 17.39Q23.04 18.31 21.72 18.31L21.72 18.31Q20.69 18.31 20.08 17.74Q19.46 17.16 19.34 16.03L19.34 16.03Q18.53 17.35 17.63 17.83Q16.73 18.31 15.79 18.31L15.79 18.31ZM28.27 18.31Q27.12 18.31 26.33 17.87Q25.54 17.42 25.15 16.72Q24.77 16.01 24.77 15.24L24.77 15.24Q24.77 14.45 25.14 13.86Q25.51 13.27 26.04 13.01L26.04 13.01Q26.98 11.33 27.67 9.61Q28.37 7.90 28.99 5.90L28.99 5.90L32.54 5.42Q32.66 8.50 32.95 12.07L32.95 12.07Q33.07 13.51 33.07 14.16L33.07 14.16Q33.07 14.71 32.98 15.07L32.98 15.07Q34.10 14.42 34.70 13.87L34.70 13.87L35.71 13.87Q34.18 15.65 32.04 16.87L32.04 16.87Q31.34 17.62 30.32 17.96Q29.30 18.31 28.27 18.31L28.27 18.31ZM27.50 16.42Q28.39 16.42 28.99 15.89Q29.59 15.36 29.59 14.18L29.59 14.18Q29.59 13.46 29.45 12.17L29.45 12.17Q29.21 9.43 29.14 8.50L29.14 8.50Q28.56 10.39 27.19 13.03L27.19 13.03Q27.74 13.32 27.74 13.87L27.74 13.87Q27.74 14.33 27.44 14.69Q27.14 15.05 26.69 15.05L26.69 15.05Q26.18 15.05 26.04 14.74L26.04 14.74Q26.04 15.60 26.39 16.01Q26.74 16.42 27.50 16.42L27.50 16.42ZM37.08 18.31Q35.93 18.31 35.22 17.59Q34.51 16.87 34.51 15.43L34.51 15.43Q34.51 14.83 34.70 13.87L34.70 13.87L36.14 7.13L35.35 7.13L35.54 6.17L36.34 6.17L37.06 2.86L40.61 2.38L39.79 6.17L41.23 6.17L41.04 7.13L39.60 7.13L38.06 14.33Q37.97 14.69 37.97 15.10L37.97 15.10Q37.97 15.58 38.20 15.78Q38.42 15.98 38.95 15.98L38.95 15.98Q39.65 15.98 40.25 15.40Q40.85 14.81 41.11 13.87L41.11 13.87L42.12 13.87Q41.23 16.46 39.84 17.39Q38.45 18.31 37.08 18.31L37.08 18.31ZM43.99 18.31Q42.62 18.31 41.71 17.38Q40.80 16.44 40.80 14.45L40.80 14.45Q40.80 12.67 41.51 10.72Q42.22 8.76 43.62 7.40Q45.02 6.05 46.97 6.05L46.97 6.05Q47.95 6.05 48.43 6.38Q48.91 6.72 48.91 7.27L48.91 7.27L48.91 7.44L49.18 6.17L52.63 6.17L50.90 14.33Q50.81 14.69 50.81 15.10L50.81 15.10Q50.81 16.13 51.79 16.13L51.79 16.13Q52.46 16.13 52.96 15.50Q53.45 14.88 53.74 13.87L53.74 13.87L54.74 13.87Q53.86 16.46 52.55 17.39Q51.24 18.31 49.92 18.31L49.92 18.31Q48.91 18.31 48.30 17.75Q47.69 17.18 47.57 16.10L47.57 16.10Q46.87 17.09 46.02 17.70Q45.17 18.31 43.99 18.31L43.99 18.31ZM45.55 15.98Q46.15 15.98 46.74 15.42Q47.33 14.86 47.54 13.87L47.54 13.87L48.70 8.45Q48.70 8.14 48.46 7.84Q48.22 7.54 47.71 7.54L47.71 7.54Q46.75 7.54 45.98 8.65Q45.22 9.77 44.78 11.34Q44.35 12.91 44.35 14.11L44.35 14.11Q44.35 15.31 44.70 15.65Q45.05 15.98 45.55 15.98L45.55 15.98ZM56.47 18.31Q55.08 18.31 54.30 17.60Q53.52 16.90 53.52 15.48L53.52 15.48Q53.52 14.90 53.64 14.33L53.64 14.33L55.37 6.17L58.82 6.17L57.10 14.33Q56.98 14.93 56.98 15.19L56.98 15.19Q56.98 15.98 57.79 15.98L57.79 15.98Q58.90 15.98 59.84 14.59Q60.79 13.20 61.37 11.28Q61.94 9.36 61.94 7.97L61.94 7.97Q61.90 8.09 61.63 8.15Q61.37 8.21 61.18 8.21L61.18 8.21Q60.77 8.21 60.54 7.82Q60.31 7.44 60.31 6.98L60.31 6.98Q60.31 6.41 60.68 6.05Q61.06 5.69 61.80 5.69L61.80 5.69Q62.59 5.69 62.95 6.28Q63.31 6.86 63.31 7.78L63.31 7.78Q63.31 9.94 62.57 12.40Q61.82 14.86 60.29 16.58Q58.75 18.31 56.47 18.31L56.47 18.31ZM67.18 18.26Q65.40 18.26 64.37 17.35Q63.34 16.44 63.34 14.47L63.34 14.47Q63.34 12.84 64.01 10.85Q64.68 8.86 66.17 7.40Q67.66 5.95 69.91 5.95L69.91 5.95Q72.98 5.95 72.98 9.79L72.98 9.79L72.98 9.82Q73.06 9.84 73.25 9.84L73.25 9.84Q74.04 9.84 75.07 9.42Q76.10 9.00 76.94 8.40L76.94 8.40L77.16 9.05Q76.46 9.79 75.35 10.31Q74.23 10.82 72.91 11.04L72.91 11.04Q72.72 13.22 71.93 14.86Q71.14 16.49 69.89 17.38Q68.64 18.26 67.18 18.26L67.18 18.26ZM68.14 16.10Q68.71 16.10 69.29 15.44Q69.86 14.78 70.30 13.64Q70.73 12.50 70.92 11.11L70.92 11.11Q70.27 10.97 70.27 10.10L70.27 10.10Q70.27 9.12 71.02 8.81L71.02 8.81Q70.97 8.02 70.78 7.72Q70.58 7.42 70.10 7.42L70.10 7.42Q69.31 7.42 68.57 8.57Q67.82 9.72 67.37 11.33Q66.91 12.94 66.91 14.16L66.91 14.16Q66.91 15.31 67.18 15.71Q67.44 16.10 68.14 16.10L68.14 16.10ZM81.67 18.17L84.94 2.90L88.49 2.42L86.78 10.44Q87.94 10.34 88.91 9.43Q89.88 8.52 90.43 7.18Q90.98 5.83 90.98 4.54L90.98 4.54Q90.98 3.10 90.24 2.18Q89.50 1.27 88.01 1.27L88.01 1.27Q85.08 1.27 83.44 2.81Q81.79 4.34 81.79 7.10L81.79 7.10Q81.79 7.99 81.96 8.34Q82.13 8.69 82.13 8.74L82.13 8.74Q80.83 8.74 80.20 8.20Q79.56 7.66 79.56 6.41L79.56 6.41Q79.56 4.87 80.82 3.42Q82.08 1.97 84.05 1.07Q86.02 0.17 87.98 0.17L87.98 0.17Q89.88 0.17 91.15 0.82Q92.42 1.46 93.04 2.53Q93.65 3.60 93.65 4.90L93.65 4.90Q93.65 6.46 92.80 7.94Q91.94 9.43 90.36 10.38Q88.78 11.33 86.71 11.33L86.71 11.33L86.59 11.33L85.13 18.17L81.67 18.17ZM95.54 18.31Q94.39 18.31 93.68 17.59Q92.98 16.87 92.98 15.43L92.98 15.43Q92.98 14.83 93.17 13.87L93.17 13.87L94.80 6.17L98.26 6.17L96.53 14.33Q96.46 14.69 96.46 15L96.46 15Q96.46 15.98 97.18 15.98L97.18 15.98Q97.85 15.98 98.33 15.42Q98.81 14.86 99.10 13.87L99.10 13.87L100.73 6.17L104.18 6.17L102.46 14.33Q102.36 14.69 102.36 15.10L102.36 15.10Q102.36 15.58 102.59 15.78Q102.82 15.98 103.34 15.98L103.34 15.98Q104.02 15.98 104.51 15.41Q105 14.83 105.29 13.87L105.29 13.87L106.30 13.87Q105.41 16.46 104.10 17.39Q102.79 18.31 101.47 18.31L101.47 18.31Q100.44 18.31 99.83 17.74Q99.22 17.16 99.10 16.03L99.10 16.03Q98.28 17.35 97.38 17.83Q96.48 18.31 95.54 18.31L95.54 18.31ZM119.88 18.31Q118.42 18.31 117.73 17.53Q117.05 16.75 117.05 15.60L117.05 15.60Q117.05 15.10 117.17 14.46Q117.29 13.82 117.42 13.22Q117.55 12.62 117.60 12.46L117.60 12.46Q117.79 11.62 117.96 10.80Q118.13 9.98 118.13 9.48L118.13 9.48Q118.13 8.26 117.26 8.26L117.26 8.26Q116.64 8.26 116.16 8.87Q115.68 9.48 115.39 10.46L115.39 10.46L113.76 18.17L110.30 18.17L112.06 9.89Q112.13 9.60 112.13 9.29L112.13 9.29Q112.13 8.23 111.41 8.23L111.41 8.23Q110.74 8.23 110.24 8.84Q109.75 9.46 109.46 10.46L109.46 10.46L107.83 18.17L104.38 18.17L106.92 6.17L110.38 6.17L110.11 7.42Q111.34 6.05 113.04 6.05L113.04 6.05Q115.15 6.05 115.51 8.11L115.51 8.11Q116.83 6.07 118.85 6.07L118.85 6.07Q120.07 6.07 120.79 6.74Q121.51 7.42 121.51 8.78L121.51 8.78Q121.51 9.48 121.34 10.33Q121.18 11.18 120.86 12.41L120.86 12.41Q120.67 13.15 120.52 13.86Q120.36 14.57 120.36 14.98L120.36 14.98Q120.36 15.46 120.58 15.72Q120.79 15.98 121.32 15.98L121.32 15.98Q122.04 15.98 122.47 15.47Q122.90 14.95 123.34 13.87L123.34 13.87L124.34 13.87Q123.46 16.51 122.29 17.41Q121.13 18.31 119.88 18.31L119.88 18.31ZM126.22 18.31Q124.85 18.31 123.94 17.38Q123.02 16.44 123.02 14.45L123.02 14.45Q123.02 12.67 123.73 10.72Q124.44 8.76 125.84 7.40Q127.25 6.05 129.19 6.05L129.19 6.05Q130.18 6.05 130.66 6.38Q131.14 6.72 131.14 7.27L131.14 7.27L131.14 7.44L131.40 6.17L134.86 6.17L133.13 14.33Q133.03 14.69 133.03 15.10L133.03 15.10Q133.03 16.13 134.02 16.13L134.02 16.13Q134.69 16.13 135.18 15.50Q135.67 14.88 135.96 13.87L135.96 13.87L136.97 13.87Q136.08 16.46 134.77 17.39Q133.46 18.31 132.14 18.31L132.14 18.31Q131.14 18.31 130.52 17.75Q129.91 17.18 129.79 16.10L129.79 16.10Q129.10 17.09 128.24 17.70Q127.39 18.31 126.22 18.31L126.22 18.31ZM127.78 15.98Q128.38 15.98 128.96 15.42Q129.55 14.86 129.77 13.87L129.77 13.87L130.92 8.45Q130.92 8.14 130.68 7.84Q130.44 7.54 129.94 7.54L129.94 7.54Q128.98 7.54 128.21 8.65Q127.44 9.77 127.01 11.34Q126.58 12.91 126.58 14.11L126.58 14.11Q126.58 15.31 126.92 15.65Q127.27 15.98 127.78 15.98L127.78 15.98ZM139.39 18.31Q137.62 18.31 136.63 17.39Q135.65 16.46 135.65 14.50L135.65 14.50Q135.65 12.84 136.31 10.85Q136.97 8.86 138.42 7.40Q139.87 5.95 142.10 5.95L142.10 5.95Q143.54 5.95 144.16 6.58Q144.77 7.20 144.77 8.16L144.77 8.16Q144.77 9.00 144.41 9.46Q144.05 9.91 143.50 9.91L143.50 9.91Q143.09 9.91 142.66 9.62L142.66 9.62Q142.94 8.83 142.94 8.21L142.94 8.21Q142.94 7.75 142.78 7.49Q142.61 7.22 142.27 7.22L142.27 7.22Q141.55 7.22 140.83 8.40Q140.11 9.58 139.66 11.26Q139.20 12.94 139.20 14.28L139.20 14.28Q139.20 15.46 139.61 15.88Q140.02 16.30 140.93 16.30L140.93 16.30Q142.22 16.30 143.15 15.70Q144.07 15.10 145.18 13.87L145.18 13.87L145.99 13.87Q143.33 18.31 139.39 18.31L139.39 18.31ZM153.84 18.31Q152.38 18.31 151.69 17.53Q151.01 16.75 151.01 15.60L151.01 15.60Q151.01 15.10 151.13 14.46Q151.25 13.82 151.38 13.22Q151.51 12.62 151.56 12.46L151.56 12.46Q151.75 11.62 151.92 10.80Q152.09 9.98 152.09 9.48L152.09 9.48Q152.09 8.26 151.22 8.26L151.22 8.26Q150.60 8.26 150.12 8.87Q149.64 9.48 149.35 10.46L149.35 10.46L147.72 18.17L144.26 18.17L147.74 1.85L151.30 1.37L150.00 7.42Q151.20 6.07 152.81 6.07L152.81 6.07Q154.03 6.07 154.75 6.74Q155.47 7.42 155.47 8.78L155.47 8.78Q155.47 9.48 155.30 10.33Q155.14 11.18 154.82 12.41L154.82 12.41Q154.63 13.15 154.48 13.86Q154.32 14.57 154.32 14.98L154.32 14.98Q154.32 15.46 154.54 15.72Q154.75 15.98 155.28 15.98L155.28 15.98Q156.00 15.98 156.43 15.47Q156.86 14.95 157.30 13.87L157.30 13.87L158.30 13.87Q157.42 16.51 156.25 17.41Q155.09 18.31 153.84 18.31L153.84 18.31ZM160.18 18.31Q158.81 18.31 157.90 17.38Q156.98 16.44 156.98 14.45L156.98 14.45Q156.98 12.67 157.69 10.72Q158.40 8.76 159.80 7.40Q161.21 6.05 163.15 6.05L163.15 6.05Q164.14 6.05 164.62 6.38Q165.10 6.72 165.10 7.27L165.10 7.27L165.10 7.44L165.36 6.17L168.82 6.17L167.09 14.33Q166.99 14.69 166.99 15.10L166.99 15.10Q166.99 16.13 167.98 16.13L167.98 16.13Q168.65 16.13 169.14 15.50Q169.63 14.88 169.92 13.87L169.92 13.87L170.93 13.87Q170.04 16.46 168.73 17.39Q167.42 18.31 166.10 18.31L166.10 18.31Q165.10 18.31 164.48 17.75Q163.87 17.18 163.75 16.10L163.75 16.10Q163.06 17.09 162.20 17.70Q161.35 18.31 160.18 18.31L160.18 18.31ZM161.74 15.98Q162.34 15.98 162.92 15.42Q163.51 14.86 163.73 13.87L163.73 13.87L164.88 8.45Q164.88 8.14 164.64 7.84Q164.40 7.54 163.90 7.54L163.90 7.54Q162.94 7.54 162.17 8.65Q161.40 9.77 160.97 11.34Q160.54 12.91 160.54 14.11L160.54 14.11Q160.54 15.31 160.88 15.65Q161.23 15.98 161.74 15.98L161.74 15.98ZM174.17 24.17Q173.02 24.17 172.25 23.57Q171.48 22.97 171.48 21.84L171.48 21.84Q171.48 20.47 172.58 19.64Q173.69 18.82 175.39 18.26L175.39 18.26L175.68 16.99Q174.46 18.31 172.80 18.31L172.80 18.31Q171.43 18.31 170.52 17.38Q169.61 16.44 169.61 14.45L169.61 14.45Q169.61 12.67 170.32 10.72Q171.02 8.76 172.43 7.40Q173.83 6.05 175.78 6.05L175.78 6.05Q176.76 6.05 177.24 6.38Q177.72 6.72 177.72 7.27L177.72 7.27L177.72 7.42L177.98 6.17L181.44 6.17L179.06 17.30Q180.22 16.92 180.91 16.15Q181.61 15.38 182.09 13.87L182.09 13.87L183.10 13.87Q182.45 16.01 181.34 17.00Q180.24 18 178.85 18.36L178.85 18.36L178.49 20.09Q178.01 22.42 176.83 23.29Q175.66 24.17 174.17 24.17L174.17 24.17ZM174.36 15.98Q174.91 15.98 175.49 15.48Q176.06 14.98 176.28 14.11L176.28 14.11L177.50 8.42Q177.50 8.14 177.26 7.84Q177.02 7.54 176.52 7.54L176.52 7.54Q175.56 7.54 174.79 8.65Q174.02 9.77 173.59 11.34Q173.16 12.91 173.16 14.11L173.16 14.11Q173.16 15.31 173.51 15.65Q173.86 15.98 174.36 15.98L174.36 15.98ZM173.62 22.30Q174.02 22.30 174.41 21.74Q174.79 21.19 175.01 20.16L175.01 20.16L175.15 19.46Q172.80 20.33 172.80 21.50L172.80 21.50Q172.80 21.82 173.02 22.06Q173.23 22.30 173.62 22.30L173.62 22.30ZM184.46 18.31Q183.31 18.31 182.60 17.59Q181.90 16.87 181.90 15.43L181.90 15.43Q181.90 14.83 182.09 13.87L182.09 13.87L183.72 6.17L187.18 6.17L185.45 14.33Q185.38 14.69 185.38 15L185.38 15Q185.38 15.98 186.10 15.98L186.10 15.98Q186.77 15.98 187.25 15.42Q187.73 14.86 188.02 13.87L188.02 13.87L189.65 6.17L193.10 6.17L191.38 14.33Q191.28 14.69 191.28 15.10L191.28 15.10Q191.28 15.58 191.51 15.78Q191.74 15.98 192.26 15.98L192.26 15.98Q192.94 15.98 193.43 15.41Q193.92 14.83 194.21 13.87L194.21 13.87L195.22 13.87Q194.33 16.46 193.02 17.39Q191.71 18.31 190.39 18.31L190.39 18.31Q189.36 18.31 188.75 17.74Q188.14 17.16 188.02 16.03L188.02 16.03Q187.20 17.35 186.30 17.83Q185.40 18.31 184.46 18.31L184.46 18.31ZM197.09 18.31Q195.72 18.31 194.81 17.38Q193.90 16.44 193.90 14.45L193.90 14.45Q193.90 12.67 194.60 10.72Q195.31 8.76 196.72 7.40Q198.12 6.05 200.06 6.05L200.06 6.05Q201.05 6.05 201.53 6.38Q202.01 6.72 202.01 7.27L202.01 7.27L202.01 7.44L202.27 6.17L205.73 6.17L204.00 14.33Q203.90 14.69 203.90 15.10L203.90 15.10Q203.90 16.13 204.89 16.13L204.89 16.13Q205.56 16.13 206.05 15.50Q206.54 14.88 206.83 13.87L206.83 13.87L207.84 13.87Q206.95 16.46 205.64 17.39Q204.34 18.31 203.02 18.31L203.02 18.31Q202.01 18.31 201.40 17.75Q200.78 17.18 200.66 16.10L200.66 16.10Q199.97 17.09 199.12 17.70Q198.26 18.31 197.09 18.31L197.09 18.31ZM198.65 15.98Q199.25 15.98 199.84 15.42Q200.42 14.86 200.64 13.87L200.64 13.87L201.79 8.45Q201.79 8.14 201.55 7.84Q201.31 7.54 200.81 7.54L200.81 7.54Q199.85 7.54 199.08 8.65Q198.31 9.77 197.88 11.34Q197.45 12.91 197.45 14.11L197.45 14.11Q197.45 15.31 197.80 15.65Q198.14 15.98 198.65 15.98L198.65 15.98ZM214.30 18.17L217.56 2.90L221.11 2.42L219.41 10.44Q220.56 10.34 221.53 9.43Q222.50 8.52 223.06 7.18Q223.61 5.83 223.61 4.54L223.61 4.54Q223.61 3.10 222.86 2.18Q222.12 1.27 220.63 1.27L220.63 1.27Q217.70 1.27 216.06 2.81Q214.42 4.34 214.42 7.10L214.42 7.10Q214.42 7.99 214.58 8.34Q214.75 8.69 214.75 8.74L214.75 8.74Q213.46 8.74 212.82 8.20Q212.18 7.66 212.18 6.41L212.18 6.41Q212.18 4.87 213.44 3.42Q214.70 1.97 216.67 1.07Q218.64 0.17 220.61 0.17L220.61 0.17Q222.50 0.17 223.78 0.82Q225.05 1.46 225.66 2.53Q226.27 3.60 226.27 4.90L226.27 4.90Q226.27 6.46 225.42 7.94Q224.57 9.43 222.98 10.38Q221.40 11.33 219.34 11.33L219.34 11.33L219.22 11.33L217.75 18.17L214.30 18.17ZM229.22 18.31Q227.45 18.31 226.46 17.39Q225.48 16.46 225.48 14.50L225.48 14.50Q225.48 12.84 226.13 10.85Q226.78 8.86 228.24 7.40Q229.70 5.95 231.96 5.95L231.96 5.95Q234.60 5.95 234.60 8.26L234.60 8.26Q234.60 9.60 233.83 10.73Q233.06 11.86 231.79 12.54Q230.52 13.22 229.08 13.32L229.08 13.32Q229.03 14.04 229.03 14.28L229.03 14.28Q229.03 15.46 229.44 15.88Q229.85 16.30 230.76 16.30L230.76 16.30Q232.06 16.30 232.98 15.70Q233.90 15.10 235.01 13.87L235.01 13.87L235.82 13.87Q233.16 18.31 229.22 18.31L229.22 18.31ZM229.27 12.17Q230.16 12.12 230.96 11.54Q231.77 10.97 232.26 10.08Q232.75 9.19 232.75 8.21L232.75 8.21Q232.75 7.22 232.15 7.22L232.15 7.22Q231.29 7.22 230.46 8.74Q229.63 10.25 229.27 12.17L229.27 12.17ZM234.10 18.17L236.64 6.17L240.10 6.17L239.78 7.66Q240.60 6.94 241.26 6.55Q241.92 6.17 242.69 6.17L242.69 6.17Q243.46 6.17 243.90 6.70Q244.34 7.22 244.34 7.97L244.34 7.97Q244.34 8.66 243.89 9.19Q243.43 9.72 242.62 9.72L242.62 9.72Q242.09 9.72 241.91 9.47Q241.73 9.22 241.63 8.74L241.63 8.74Q241.56 8.42 241.49 8.28Q241.42 8.14 241.22 8.14L241.22 8.14Q240.72 8.14 240.37 8.34Q240.02 8.54 239.47 9.05L239.47 9.05L237.55 18.17L234.10 18.17ZM247.46 18.31Q245.69 18.31 244.70 17.39Q243.72 16.46 243.72 14.50L243.72 14.50Q243.72 12.84 244.37 10.85Q245.02 8.86 246.48 7.40Q247.94 5.95 250.20 5.95L250.20 5.95Q252.84 5.95 252.84 8.26L252.84 8.26Q252.84 9.60 252.07 10.73Q251.30 11.86 250.03 12.54Q248.76 13.22 247.32 13.32L247.32 13.32Q247.27 14.04 247.27 14.28L247.27 14.28Q247.27 15.46 247.68 15.88Q248.09 16.30 249.00 16.30L249.00 16.30Q250.30 16.30 251.22 15.70Q252.14 15.10 253.25 13.87L253.25 13.87L254.06 13.87Q251.40 18.31 247.46 18.31L247.46 18.31ZM247.51 12.17Q248.40 12.12 249.20 11.54Q250.01 10.97 250.50 10.08Q250.99 9.19 250.99 8.21L250.99 8.21Q250.99 7.22 250.39 7.22L250.39 7.22Q249.53 7.22 248.70 8.74Q247.87 10.25 247.51 12.17L247.51 12.17ZM253.25 18.17L259.37 7.46L258.02 7.46Q257.35 7.46 257.03 7.54Q256.70 7.61 256.70 7.85L256.70 7.85Q256.70 7.90 256.84 7.96Q256.97 8.02 256.97 8.38L256.97 8.38Q256.97 9.00 256.58 9.32Q256.20 9.65 255.67 9.65L255.67 9.65Q255.22 9.65 254.89 9.37Q254.57 9.10 254.57 8.59L254.57 8.59Q254.57 8.09 254.92 7.51Q255.26 6.94 255.90 6.55Q256.54 6.17 257.35 6.17L257.35 6.17L263.52 6.17L257.64 16.32Q257.78 16.32 258.17 16.37L258.17 16.37Q258.98 16.46 259.46 16.46L259.46 16.46Q260.50 16.46 260.59 15.98L260.59 15.98Q260.38 15.96 260.26 15.83Q260.14 15.70 260.14 15.48L260.14 15.48Q260.14 15.10 260.50 14.77Q260.86 14.45 261.48 14.45L261.48 14.45Q262.01 14.45 262.27 14.76Q262.54 15.07 262.54 15.60L262.54 15.60Q262.54 16.18 262.18 16.78Q261.82 17.38 261.14 17.77Q260.47 18.17 259.61 18.17L259.61 18.17L253.25 18.17Z" transform="translate(38.917, 2.417)"></path></svg>